<svg width="3000" height="1000" viewBox="0 0 3000 1000" fill="none" xmlns="http://www.w3.org/2000/svg">
<g clip-path="url(#clip0_1_16)">
<path d="M527 92V842H727V392L887.957 593.196C907.973 618.216 946.027 618.216 966.043 593.196L1127 392V842H1327V242L1127 42L927 292L742.012 60.7652C732.524 48.9045 718.158 42 702.969 42H577C549.386 42 527 64.3858 527 92Z" fill="#1774E0"/>
<g filter="url(#filter0_d_1_16)">
<path d="M1127 192V42L1327 242H1177C1149.39 242 1127 219.614 1127 192Z" fill="#5DA0EE"/>
</g>
<path d="M1537.05 847.784C1514.55 847.784 1493.34 843.607 1473.42 835.252C1453.5 826.897 1436.15 815.49 1421.37 801.03L1449.32 768.254C1461.53 779.501 1475.35 788.659 1490.77 795.728C1506.2 802.476 1522.59 805.85 1539.94 805.85C1559.86 805.85 1575.28 801.673 1586.21 793.318C1597.14 784.963 1602.6 774.359 1602.6 761.506C1602.6 751.223 1600.19 743.029 1595.37 736.924C1590.55 730.819 1583.96 725.677 1575.61 721.5C1567.57 717.323 1558.25 713.145 1547.65 708.968L1503.31 689.206C1492.7 685.029 1482.1 679.566 1471.49 672.818C1461.21 665.749 1452.7 656.912 1445.95 646.308C1439.2 635.383 1435.83 622.208 1435.83 606.784C1435.83 590.396 1440.32 575.775 1449.32 562.922C1458.32 549.747 1470.85 539.465 1486.92 532.074C1502.98 524.362 1521.46 520.506 1542.35 520.506C1561.95 520.506 1580.27 524.201 1597.3 531.592C1614.33 538.661 1628.95 548.141 1641.16 560.03L1616.09 590.878C1605.81 581.881 1594.56 574.972 1582.35 570.152C1570.46 565.011 1556.33 562.44 1539.94 562.44C1523.55 562.44 1510.21 566.135 1499.93 573.526C1489.65 580.917 1484.51 591.039 1484.51 603.892C1484.51 613.211 1487.08 620.762 1492.22 626.546C1497.68 632.33 1504.59 637.15 1512.95 641.006C1521.62 644.862 1530.46 648.718 1539.46 652.574L1582.35 671.372C1595.53 676.513 1607.26 682.779 1617.54 690.17C1628.14 697.239 1636.5 706.076 1642.6 716.68C1648.71 727.284 1651.76 740.298 1651.76 755.722C1651.76 772.753 1647.1 788.337 1637.78 802.476C1628.79 816.293 1615.61 827.379 1598.26 835.734C1581.23 843.767 1560.82 847.784 1537.05 847.784ZM1692.54 842L1796.66 526.29H1852.57L1956.68 842H1905.59L1854.5 669.926C1849.35 652.574 1844.21 635.222 1839.07 617.87C1834.25 600.197 1829.43 582.523 1824.61 564.85H1822.68C1818.19 582.523 1813.37 600.197 1808.22 617.87C1803.4 635.222 1798.42 652.574 1793.28 669.926L1741.71 842H1692.54ZM1750.87 751.384V713.306H1897.39V751.384H1750.87ZM2224.83 847.784C2194.31 847.784 2169.73 837.019 2151.09 815.49C2132.45 793.639 2123.13 763.273 2123.13 724.392C2123.13 699.007 2128.11 677.156 2138.07 658.84C2148.36 640.203 2161.53 625.903 2177.6 615.942C2193.67 605.659 2210.7 600.518 2228.69 600.518C2242.51 600.518 2254.88 603.089 2265.8 608.23C2276.73 613.371 2286.85 620.601 2296.17 629.92H2297.62L2295.21 587.986V500.262H2342.92V842H2303.88L2300.03 813.08H2298.58C2289.26 822.399 2278.18 830.593 2265.32 837.662C2252.47 844.41 2238.97 847.784 2224.83 847.784ZM2235.92 808.26C2246.52 808.26 2256.65 805.689 2266.29 800.548C2276.25 795.085 2285.89 787.052 2295.21 776.448V664.624C2285.89 655.948 2276.57 649.843 2267.25 646.308C2257.93 642.452 2248.61 640.524 2239.29 640.524C2227.08 640.524 2215.84 643.898 2205.55 650.646C2195.59 657.394 2187.56 667.034 2181.45 679.566C2175.35 692.098 2172.3 706.879 2172.3 723.91C2172.3 750.902 2177.92 771.789 2189.17 786.57C2200.41 801.03 2216 808.26 2235.92 808.26ZM2529.75 847.784C2509.19 847.784 2489.91 842.964 2471.91 833.324C2454.24 823.684 2439.78 809.706 2428.53 791.39C2417.61 772.753 2412.14 750.42 2412.14 724.392C2412.14 698.364 2417.61 676.192 2428.53 657.876C2439.78 639.239 2454.24 625.1 2471.91 615.46C2489.91 605.499 2509.19 600.518 2529.75 600.518C2550.32 600.518 2569.44 605.499 2587.11 615.46C2605.11 625.1 2619.57 639.239 2630.49 657.876C2641.74 676.192 2647.36 698.364 2647.36 724.392C2647.36 750.42 2641.74 772.753 2630.49 791.39C2619.57 809.706 2605.11 823.684 2587.11 833.324C2569.44 842.964 2550.32 847.784 2529.75 847.784ZM2529.75 808.742C2543.57 808.742 2555.62 805.207 2565.9 798.138C2576.19 791.069 2584.06 781.268 2589.52 768.736C2595.3 756.204 2598.2 741.423 2598.2 724.392C2598.2 707.683 2595.3 693.062 2589.52 680.53C2584.06 667.677 2576.19 657.715 2565.9 650.646C2555.62 643.577 2543.57 640.042 2529.75 640.042C2515.94 640.042 2503.89 643.577 2493.6 650.646C2483.32 657.715 2475.29 667.677 2469.5 680.53C2464.04 693.062 2461.31 707.683 2461.31 724.392C2461.31 741.423 2464.04 756.204 2469.5 768.736C2475.29 781.268 2483.32 791.069 2493.6 798.138C2503.89 805.207 2515.94 808.742 2529.75 808.742ZM2840.45 847.784C2816.03 847.784 2794.02 842.964 2774.42 833.324C2754.82 823.684 2739.23 809.706 2727.67 791.39C2716.42 772.753 2710.8 750.42 2710.8 724.392C2710.8 698.364 2716.9 676.192 2729.11 657.876C2741.32 639.239 2757.39 625.1 2777.31 615.46C2797.56 605.499 2819.57 600.518 2843.35 600.518C2862.63 600.518 2879.5 603.892 2893.96 610.64C2908.42 617.067 2920.47 624.939 2930.11 634.258L2906.97 664.624C2897.33 656.912 2887.53 650.967 2877.57 646.79C2867.93 642.291 2857.32 640.042 2845.76 640.042C2829.05 640.042 2814.1 643.577 2800.93 650.646C2788.08 657.715 2777.95 667.677 2770.56 680.53C2763.49 693.062 2759.96 707.683 2759.96 724.392C2759.96 741.423 2763.49 756.204 2770.56 768.736C2777.63 781.268 2787.43 791.069 2799.97 798.138C2812.82 805.207 2827.6 808.742 2844.31 808.742C2858.45 808.742 2871.3 806.011 2882.87 800.548C2894.44 795.085 2904.88 788.498 2914.2 780.786L2934.93 811.634C2921.75 823.202 2906.97 832.199 2890.58 838.626C2874.52 844.731 2857.81 847.784 2840.45 847.784Z" fill="url(#paint0_linear_1_16)"/>
<rect y="842" width="2066" height="100" fill="#125BB0"/>
</g>
<defs>
<filter id="filter0_d_1_16" x="1112" y="35" width="230" height="230" filterUnits="userSpaceOnUse" color-interpolation-filters="sRGB">
<feFlood flood-opacity="0" result="BackgroundImageFix"/>
<feColorMatrix in="SourceAlpha" type="matrix" values="0 0 0 0 0 0 0 0 0 0 0 0 0 0 0 0 0 0 127 0" result="hardAlpha"/>
<feOffset dy="8"/>
<feGaussianBlur stdDeviation="7.5"/>
<feComposite in2="hardAlpha" operator="out"/>
<feColorMatrix type="matrix" values="0 0 0 0 0.0705882 0 0 0 0 0.356863 0 0 0 0 0.690196 0 0 0 0.5 0"/>
<feBlend mode="normal" in2="BackgroundImageFix" result="effect1_dropShadow_1_16"/>
<feBlend mode="normal" in="SourceGraphic" in2="effect1_dropShadow_1_16" result="shape"/>
</filter>
<linearGradient id="paint0_linear_1_16" x1="1647.18" y1="779.5" x2="2669.74" y2="779.5" gradientUnits="userSpaceOnUse">
<stop stop-color="#1774E0"/>
<stop offset="1" stop-color="#3DD6EB"/>
</linearGradient>
<clipPath id="clip0_1_16">
<rect width="3000" height="1000" fill="white"/>
</clipPath>
</defs>
</svg>
